<svg height="511pt" viewBox="-17 0 511 511.85136" width="511pt" xmlns="http://www.w3.org/2000/svg"><path d="m469.84375 452.113281c0 51.199219-42.667969 51.199219-42.667969 51.199219h-375.464843s-42.667969 0-42.667969-51.199219 42.667969-59.734375 42.667969-59.734375-42.667969-8.53125-42.667969-51.199218c0-42.664063 51.199219-59.734376 51.199219-59.734376l-.511719-3.15625h359.425781l-.511719 3.15625s51.199219 17.070313 51.199219 59.734376c0 42.667968-42.667969 51.199218-42.667969 51.199218s42.667969 8.535156 42.667969 59.734375zm0 0" fill="#d84315"/><path d="m444.242188 452.113281c0 51.199219-42.667969 51.199219-42.667969 51.199219h-349.863281s-42.667969 0-42.667969-51.199219 42.667969-59.734375 42.667969-59.734375-42.667969-8.53125-42.667969-51.199218c0-42.664063 51.199219-59.734376 51.199219-59.734376l-.511719-3.15625h333.824219l-.511719 3.15625s51.199219 17.070313 51.199219 59.734376c0 42.667968-42.667969 51.199218-42.667969 51.199218s42.667969 8.535156 42.667969 59.734375zm0 0" fill="#ff5722"/><path d="m265.042969 400.914062s68.140625 13.628907 100.90625 77.417969c2.738281 5.300781 2.515625 11.644531-.582031 16.746094-3.097657 5.097656-8.625 8.21875-14.589844 8.234375h-222.667969c-5.96875-.015625-11.496094-3.136719-14.59375-8.234375-3.097656-5.101563-3.316406-11.445313-.578125-16.746094 32.765625-63.789062 100.90625-77.417969 100.90625-77.417969zm0 0" fill="#ffe0b2"/><g fill="#dfc49c"><path d="m400.210938 223.410156c11.148437-2.136718 22.542968 2.226563 29.410156 11.265625 6.867187 9.035157 8.023437 21.183594 2.980468 31.351563-5.039062 10.167968-15.410156 16.601562-26.757812 16.605468-4.277344.027344-8.507812-.90625-12.375-2.730468h-308.054688c-3.867187 1.824218-8.09375 2.757812-12.371093 2.730468-11.316407-.046874-21.636719-6.488281-26.648438-16.636718-5.015625-10.144532-3.863281-22.253906 2.972657-31.273438 6.835937-9.015625 18.183593-13.398437 29.308593-11.3125zm0 0"/><path d="m239.441406 400.914062h-25.597656v-38.875h51.199219v38.875zm0 0"/><path d="m401.574219 239.976562c0 70.65625-72.617188 128-162.132813 128-4.265625 0-8.617187-.171874-12.796875-.429687-83.542969-5.117187-149.335937-60.328125-149.335937-127.570313 0-67.328124 65.792968-122.453124 149.335937-127.574218 4.179688-.257813 8.53125-.425782 12.796875-.425782 89.515625 0 162.132813 57.257813 162.132813 128zm0 0"/></g><path d="m375.976562 239.976562c0-70.457031-66.859374-127.574218-149.332031-127.574218-82.476562 0-149.335937 57.117187-149.335937 127.574218 0 70.457032 66.859375 127.570313 149.335937 127.570313 82.472657 0 149.332031-57.113281 149.332031-127.570313zm0 0" fill="#ffe0b2"/><path d="m401.574219 221.714844c-24.367188-68.148438-89.785157-112.910156-162.132813-110.933594-71.4375-2.03125-136.261718 41.578125-161.300781 108.515625-.550781 1.496094-.832031 3.082031-.832031 4.675781-.011719 3.914063 1.667968 7.640625 4.613281 10.214844 2.945313 2.578125 6.863281 3.75 10.738281 3.214844 58.320313-8.070313 108.816406-44.589844 134.75-97.449219 2.292969-4.539063 6.949219-7.40625 12.035156-7.40625 5.089844 0 9.742188 2.867187 12.035157 7.40625 25.933593 52.855469 76.429687 89.378906 134.746093 97.453125 3.878907.53125 7.792969-.640625 10.738282-3.21875 2.941406-2.578125 4.625-6.304688 4.609375-10.214844zm0 0" fill="#ff9801"/><path d="m401.574219 221.714844v2.21875c.03125 3.921875-1.644531 7.664062-4.59375 10.253906s-6.878907 3.765625-10.765625 3.226562c-5.140625-.71875-10.238282-1.714843-15.273438-2.984374 3.21875-2.527344 5.082032-6.40625 5.035156-10.496094v-2.21875c-22.777343-63.773438-81.855468-107.441406-149.503906-110.507813 4.179688-.257812 8.53125-.425781 12.96875-.425781 72.347656-1.976562 137.765625 42.785156 162.132813 110.933594zm0 0" fill="#f57c00"/><path d="m418.644531 503.3125c.332031-20.320312-7.292969-39.964844-21.25-54.738281-14.421875-14.714844-39.175781-13.933594-59.175781-13.527344-45.578125.929687-79.675781 4.46875-98.777344 42.667969-19.097656-38.199219-53.199218-41.738282-98.773437-42.667969-20-.40625-44.753907-1.1875-59.175781 13.527344-13.957032 14.773437-21.582032 34.417969-21.25 54.738281zm0 0" fill="#02a9f4"/><path d="m418.644531 503.3125h-25.601562c.332031-20.304688-7.296875-39.9375-21.25-54.699219-10.292969-8.960937-23.558594-13.769531-37.203125-13.480469 1.195312 0 2.390625-.085937 3.667968-.085937 19.96875-.425781 44.714844-1.195313 59.136719 13.566406 13.953125 14.761719 21.578125 34.394531 21.25 54.699219zm0 0" fill="#0377bc"/><path d="m401.574219 230.671875v-8.957031c-24.367188-68.148438-89.785157-112.910156-162.132813-110.933594-72.347656-1.976562-137.761718 42.785156-162.132812 110.933594v8.957031l-7.300782-.121094c-4.824218-.070312-9.394531-2.179687-12.578124-5.804687-3.183594-3.625-4.6875-8.425782-4.136719-13.21875 9.484375-76.714844 53.019531-112.808594 95.527343-129.589844h181.246094c42.503906 16.859375 86.039063 52.882812 95.527344 129.589844.550781 4.792968-.953125 9.59375-4.136719 13.21875-3.1875 3.625-7.753906 5.734375-12.578125 5.804687zm0 0" fill="#ff5722"/><path d="m408.914062 230.589844-7.339843.082031v-8.957031s-.339844-.941406-.9375-2.730469c.886719-2.371094 1.179687-4.917969.855469-7.425781-9.558594-76.714844-53.078126-112.726563-95.574219-129.621094h24.148437c42.496094 16.894531 86.015625 52.90625 95.488282 129.621094.574218 4.785156-.910157 9.589844-4.085938 13.21875-3.171875 3.628906-7.734375 5.742187-12.554688 5.8125zm0 0" fill="#d84315"/><path d="m337.40625 57.445312-6.65625 22.101563-13.996094 46.679687-.339844.765626c-24.125-11.082032-50.425781-16.621094-76.972656-16.210938-26.542968-.410156-52.84375 5.128906-76.96875 16.210938l-.34375-.765626-13.992187-46.679687-6.65625-22.101563c-.878907-2.996093-.058594-6.234374 2.140625-8.453124 2.203125-2.21875 5.433594-3.066407 8.441406-2.210938l39.335938 11.261719c3.265624.914062 6.761718-.152344 8.960937-2.730469l32.511719-39.082031c1.628906-1.945313 4.035156-3.070313 6.570312-3.070313 2.539063 0 4.945313 1.125 6.570313 3.070313l32.511719 39.082031c2.203124 2.578125 5.699218 3.644531 8.960937 2.730469l39.339844-11.261719c3.003906-.855469 6.238281-.007812 8.4375 2.210938 2.203125 2.21875 3.023437 5.457031 2.144531 8.453124zm0 0" fill="#ffdc00"/><path d="m239.441406 375.3125c-73.632812 0-138.699218-37.503906-161.90625-93.320312-5.789062-13.667969-8.769531-28.367188-8.757812-43.210938-.023438-6.039062.476562-12.070312 1.492187-18.027344.523438-3.003906 2.613281-5.496094 5.476563-6.542968 2.863281-1.050782 6.070312-.488282 8.40625 1.46875 2.339844 1.957031 3.457031 5.011718 2.933594 8.015624-.851563 4.984376-1.265626 10.03125-1.242188 15.085938-.007812 12.582031 2.523438 25.035156 7.441406 36.621094 20.597656 49.570312 79.332032 82.84375 146.15625 82.84375 66.828125 0 125.558594-33.273438 146.144532-82.804688 4.921874-11.59375 7.460937-24.0625 7.457031-36.660156.023437-5.054688-.394531-10.101562-1.242188-15.085938-.523437-3.003906.59375-6.058593 2.929688-8.015624 2.339843-1.957032 5.546875-2.519532 8.410156-1.46875 2.863281 1.046874 4.953125 3.539062 5.476563 6.542968 1.015624 5.957032 1.515624 11.988282 1.492187 18.027344.007813 14.859375-2.976563 29.570312-8.773437 43.253906-23.195313 55.773438-88.261719 93.277344-161.894532 93.277344zm0 0"/><path d="m77.308594 247.3125c-4.710938.007812-8.535156-3.8125-8.542969-8.523438-.003906-4.714843 3.8125-8.539062 8.527344-8.542968 4.632812-.015625 113.925781-1.777344 154.058593-122.164063.898438-2.976562 3.34375-5.226562 6.378907-5.875 3.039062-.652343 6.191406.398438 8.230469 2.746094 2.035156 2.34375 2.640624 5.609375 1.574218 8.527344-15.550781 51.773437-52.550781 94.394531-101.625 117.066406-21.546875 10.027344-44.855468 15.726563-68.601562 16.765625zm0 0"/><path d="m401.574219 247.3125c-79.214844-4.441406-147.214844-57.902344-170.222657-133.832031-1.066406-2.917969-.464843-6.183594 1.574219-8.527344 2.039063-2.347656 5.191407-3.398437 8.226563-2.746094 3.039062.648438 5.484375 2.898438 6.382812 5.875 40.132813 120.386719 149.425782 122.148438 154.058594 122.164063 4.710938.003906 8.527344 3.828125 8.523438 8.542968-.003907 4.710938-3.828126 8.53125-8.542969 8.523438zm0 0"/><path d="m162.128906 259.628906c-5.34375-.085937-10.421875-2.355468-14.046875-6.28125-3.234375-3.347656-3.1875-8.671875.101563-11.964844 3.292968-3.289062 8.613281-3.335937 11.964844-.101562.921874.925781 2.324218 2.292969 4.863281.109375 5.726562-7.128906 14.410156-11.234375 23.554687-11.140625 9.140625.09375 17.738282 4.375 23.320313 11.617188 1.945312 2.347656 2.488281 5.558593 1.429687 8.417968-1.0625 2.859375-3.570312 4.933594-6.578125 5.445313-3.003906.511719-6.054687-.621094-8.003906-2.972657-2.464844-3.3125-6.355469-5.265624-10.488281-5.265624-4.136719 0-8.023438 1.953124-10.492188 5.265624-4.125 4.226563-9.722656 6.691407-15.625 6.871094zm0 0"/><path d="m316.617188 259.679688c-5.609376-.117188-10.957032-2.382813-14.941407-6.332032-2.320312-3.636718-6.292969-5.882812-10.605469-6-4.3125-.117187-8.402343 1.910156-10.917968 5.410156-1.945313 2.351563-5 3.484376-8.003906 2.972657-3.007813-.511719-5.515626-2.585938-6.578126-5.445313-1.058593-2.859375-.515624-6.070312 1.429688-8.417968 5.582031-7.242188 14.179688-11.523438 23.324219-11.617188 9.140625-.09375 17.824219 4.011719 23.550781 11.140625 2.535156 2.191406 3.941406.820313 4.867188-.109375 3.347656-3.234375 8.667968-3.1875 11.960937.101562 3.289063 3.292969 3.335937 8.617188.101563 11.964844-3.664063 3.960938-8.789063 6.25-14.1875 6.332032zm0 0"/><path d="m239.441406 313.847656c-17.152344.910156-33.796875-5.972656-45.300781-18.734375-2.832031-3.765625-2.078125-9.113281 1.683594-11.949219 3.765625-2.835937 9.117187-2.082031 11.953125 1.683594 8.320312 8.386719 19.878906 12.742188 31.664062 11.933594 11.789063.808594 23.34375-3.546875 31.667969-11.933594 2.835937-3.765625 8.183594-4.519531 11.949219-1.683594 3.765625 2.835938 4.519531 8.183594 1.683594 11.949219-11.5 12.761719-28.148438 19.644531-45.300782 18.734375zm0 0"/><path d="m73.042969 289.980469c-21.207031 0-38.398438-17.191407-38.398438-38.398438 0-21.210937 17.191407-38.402343 38.398438-38.402343 2.425781-.003907 4.847656.21875 7.234375.664062 2.996094.570312 5.457031 2.695312 6.460937 5.578125 1 2.878906.390625 6.074219-1.601562 8.382813-1.992188 2.308593-5.066407 3.375-8.058594 2.804687-7.964844-1.527344-16.105469 1.585937-21.015625 8.039063-4.910156 6.457031-5.738281 15.132812-2.136719 22.398437 3.601563 7.265625 11.007813 11.863281 19.117188 11.867187 3.007812.027344 5.980469-.621093 8.703125-1.902343 4.253906-2.027344 9.351562-.222657 11.378906 4.03125 2.03125 4.253906.226562 9.347656-4.027344 11.378906-5.015625 2.375-10.503906 3.589844-16.054687 3.558594zm0 0"/><path d="m405.84375 289.980469c-5.550781.03125-11.035156-1.183594-16.050781-3.558594-4.253907-2.03125-6.058594-7.125-4.03125-11.378906 2.03125-4.253907 7.125-6.058594 11.382812-4.03125 2.71875 1.28125 5.691407 1.929687 8.699219 1.902343 8.078125-.046874 15.4375-4.648437 19.011719-11.894531 3.574219-7.242187 2.75-15.886719-2.128907-22.324219-4.878906-6.4375-12.976562-9.566406-20.917968-8.085937-4.628906.882813-9.097656-2.152344-9.984375-6.78125-.882813-4.632813 2.15625-9.101563 6.785156-9.984375 2.386719-.445312 4.808594-.667969 7.234375-.664062 21.207031 0 38.398438 17.191406 38.398438 38.402343 0 21.207031-17.191407 38.398438-38.398438 38.398438zm0 0"/><path d="m316.753906 134.761719c-2.695312 0-5.234375-1.277344-6.84375-3.441407-1.609375-2.164062-2.101562-4.960937-1.332031-7.542968l20.617187-68.777344-44.742187 12.785156c-3.246094.925782-6.738281-.148437-8.898437-2.742187l-36.113282-43.332031-36.105468 43.332031c-2.164063 2.59375-5.652344 3.671875-8.902344 2.742187l-44.742188-12.785156 20.617188 68.777344c.875 2.921875.125 6.089844-1.964844 8.308594-2.09375 2.214843-5.207031 3.152343-8.175781 2.449218-2.964844-.703125-5.332031-2.933594-6.207031-5.855468l-25.089844-83.710938c-.894532-2.988281-.089844-6.226562 2.101562-8.445312s5.417969-3.066407 8.414063-2.210938l54.390625 15.539062 39.105468-46.933593c1.675782-1.855469 4.058594-2.917969 6.558594-2.917969 2.503906 0 4.886719 1.0625 6.558594 2.917969l39.109375 46.933593 54.390625-15.535156c3-.855468 6.222656-.007812 8.414062 2.207032 2.1875 2.21875 2.996094 5.453124 2.101563 8.441406l-25.085937 83.710937c-1.082032 3.609375-4.40625 6.085938-8.175782 6.085938zm0 0"/><path d="m265.042969 409.445312h-51.199219c-4.714844 0-8.535156-3.820312-8.535156-8.53125v-34.132812c0-4.714844 3.820312-8.535156 8.535156-8.535156h51.199219c4.710937 0 8.53125 3.820312 8.53125 8.535156v34.132812c0 4.710938-3.820313 8.53125-8.53125 8.53125zm-42.667969-17.066406h34.132812v-17.066406h-34.132812zm0 0"/><path d="m239.441406 511.847656h-111.332031c-8.941406-.015625-17.230469-4.683594-21.878906-12.320312-4.648438-7.640625-4.984375-17.148438-.886719-25.097656 22.363281-41.226563 61.203125-70.996094 106.824219-81.878907 4.621093-.929687 9.121093 2.0625 10.050781 6.683594s-2.0625 9.121094-6.683594 10.050781c-.652344.128906-64.609375 13.761719-95.007812 72.949219-1.402344 2.675781-1.285156 5.894531.308594 8.460937 1.527343 2.554688 4.296874 4.109376 7.273437 4.089844h111.332031c4.714844 0 8.535156 3.820313 8.535156 8.53125 0 4.714844-3.820312 8.535156-8.535156 8.535156zm0 0"/><path d="m350.777344 511.847656h-111.335938c-4.710937 0-8.53125-3.820312-8.53125-8.535156 0-4.710938 3.820313-8.53125 8.53125-8.53125h111.335938c2.976562.019531 5.742187-1.535156 7.273437-4.089844 1.59375-2.566406 1.710938-5.785156.308594-8.460937-30.402344-59.1875-94.359375-72.820313-95.007813-72.949219-4.621093-.929688-7.613281-5.429688-6.683593-10.050781.929687-4.621094 5.429687-7.613281 10.050781-6.683594 45.621094 10.882813 84.460938 40.65625 106.824219 81.882813 4.097656 7.949218 3.761719 17.457031-.886719 25.097656-4.648438 7.636718-12.9375 12.304687-21.878906 12.320312zm0 0"/><path d="m51.660156 239.003906c-4.003906.058594-7.476562-2.757812-8.242187-6.691406-.160157-.8125-.238281-1.644531-.234375-2.472656 4.625-97.179688 58.292968-138.382813 102.5-155.839844 4.359375-1.636719 9.230468.523438 10.941406 4.855469s-.367188 9.238281-4.671875 11.019531c-57.425781 22.671875-88.285156 69.953125-91.710937 140.527344-.023438 4.070312-2.871094 7.574218-6.847657 8.433594-.574219.109374-1.152343.167968-1.734375.167968zm0 0"/><path d="m128.082031 511.847656h-76.371093c-17.710938 0-51.203126-12.484375-51.203126-59.734375-1.167968-23.5625 9.972657-46.042969 29.425782-59.386719-18.507813-10.5-29.792969-30.273437-29.425782-51.546874 0-39.382813 36.4375-59.140626 51.101563-65.5 1.207031-3.757813 4.832031-6.195313 8.769531-5.898438s7.152344 3.257812 7.78125 7.152344l.511719 3.160156c.652344 4.117188-1.757813 8.109375-5.707031 9.445312-.464844.148438-45.390625 15.734376-45.390625 51.640626 0 35.265624 34.34375 42.542968 35.808593 42.839843 3.988282.796875 6.859376 4.296875 6.859376 8.363281 0 4.066407-2.871094 7.570313-6.859376 8.367188-1.417968.296875-35.808593 8.09375-35.808593 51.363281 0 41.035157 30.695312 42.621094 34.191406 42.667969h76.316406c4.714844 0 8.535157 3.820312 8.535157 8.53125 0 4.714844-3.820313 8.535156-8.535157 8.535156zm0 0"/><path d="m427.066406 238.984375c-.527344.003906-1.054687-.046875-1.574218-.148437-4.320313-.753907-7.324219-4.71875-6.882813-9.082032-3.574219-70.109375-34.425781-117.167968-91.691406-139.882812-4.382813-1.738282-6.523438-6.703125-4.785157-11.085938 1.738282-4.378906 6.703126-6.523437 11.085938-4.785156 44.203125 17.535156 97.867188 58.800781 102.484375 155.839844.035156.6875-.015625 1.375-.148437 2.046875-.804688 4.070312-4.339844 7.027343-8.488282 7.097656zm0 0"/><path d="m427.175781 511.847656h-76.375c-4.710937 0-8.53125-3.820312-8.53125-8.535156 0-4.710938 3.820313-8.53125 8.53125-8.53125h76.375c3.441407-.046875 34.132813-1.632812 34.132813-42.667969 0-43.699219-34.339844-51.074219-35.808594-51.371093-3.984375-.796876-6.855469-4.300782-6.855469-8.367188s2.871094-7.566406 6.855469-8.367188c1.433594-.292968 35.808594-7.855468 35.808594-42.828124 0-36.09375-44.90625-51.488282-45.367188-51.636719-3.964844-1.324219-6.386718-5.324219-5.722656-9.449219l.511719-3.160156c.625-3.894532 3.84375-6.851563 7.777343-7.152344 3.9375-.296875 7.5625 2.140625 8.769532 5.898438 14.664062 6.359374 51.097656 26.117187 51.097656 65.5.371094 21.273437-10.917969 41.046874-29.421875 51.546874 19.453125 13.34375 30.589844 35.824219 29.421875 59.386719 0 47.25-33.492188 59.734375-51.199219 59.734375zm0 0"/><path d="m77.308594 230.25c-2.707032-.007812-5.25-1.292969-6.855469-3.46875-1.609375-2.179688-2.089844-4.988281-1.300781-7.574219 25.832031-71.453125 94.328125-118.496093 170.289062-116.960937 75.964844-1.535156 144.457032 45.507812 170.292969 116.960937 1.390625 4.503907-1.132813 9.28125-5.636719 10.671875s-9.28125-1.136718-10.671875-5.636718c-22.925781-64.835938-85.257812-107.308594-153.984375-104.929688-68.523437-1.710938-130.492187 40.511719-153.972656 104.910156-1.105469 3.582032-4.414062 6.023438-8.160156 6.027344zm0 0"/><path d="m239.441406 486.25c-3.800781-.003906-7.140625-2.519531-8.199218-6.171875-11.800782-40.863281-63.117188-38.0625-84.617188-34.964844-4.664062.671875-8.992188-2.566406-9.664062-7.230469-.671876-4.664062 2.566406-8.992187 7.230468-9.664062 20.234375-2.917969 87.492188-8.136719 103.449219 47.128906.742187 2.574219.230469 5.351563-1.378906 7.496094-1.613281 2.140625-4.136719 3.402344-6.820313 3.40625zm0 0"/><path d="m239.441406 486.25c-2.679687-.003906-5.203125-1.265625-6.816406-3.40625-1.609375-2.144531-2.121094-4.917969-1.382812-7.496094 15.957031-55.253906 83.207031-50.046875 103.449218-47.125 3.019532.433594 5.574219 2.445313 6.707032 5.277344 1.132812 2.828125.671874 6.050781-1.214844 8.445312-1.886719 2.398438-4.90625 3.605469-7.925782 3.171876-21.503906-3.101563-72.816406-5.902344-84.617187 34.964843-1.058594 3.652344-4.398437 6.164063-8.199219 6.167969zm0 0"/><path d="m60.242188 511.847656c-4.710938 0-8.53125-3.820312-8.53125-8.535156 0-26.191406 8.214843-46.328125 24.414062-59.847656 30.425781-25.398438 77.542969-17.179688 79.507812-16.8125 4.582032.894531 7.59375 5.304687 6.761719 9.898437-.832031 4.589844-5.199219 7.664063-9.800781 6.894531-.402344-.070312-41.375-7.109374-65.585938 13.167969-12.875 11.976563-19.585937 29.167969-18.230468 46.699219 0 2.265625-.902344 4.433594-2.5 6.035156-1.601563 1.601563-3.773438 2.5-6.035156 2.5zm0 0"/><path d="m418.644531 511.847656c-4.714843 0-8.535156-3.820312-8.535156-8.535156 1.359375-17.554688-5.371094-34.769531-18.285156-46.746094-24.355469-20.332031-65.113281-13.1875-65.523438-13.125-4.628906.828125-9.058593-2.246094-9.898437-6.875-.839844-4.625 2.222656-9.0625 6.847656-9.914062 1.976562-.367188 49.101562-8.566406 79.507812 16.808594 16.203126 13.523437 24.417969 33.660156 24.417969 59.851562 0 4.714844-3.820312 8.535156-8.53125 8.535156zm0 0"/></svg>